<mxfile host="65bd71144e">
    <diagram id="rZ1LEs8H9-ZDVradM3Gl" name="MCD">
        <mxGraphModel dx="851" dy="773" grid="1" gridSize="10" guides="1" tooltips="1" connect="1" arrows="1" fold="1" page="1" pageScale="1" pageWidth="827" pageHeight="1169" math="0" shadow="0">
            <root>
                <mxCell id="0"/>
                <mxCell id="1" parent="0"/>
                <mxCell id="26" value="1, n" style="edgeStyle=none;html=1;entryX=0.5;entryY=0;entryDx=0;entryDy=0;endArrow=baseDash;endFill=0;" edge="1" parent="1" source="2" target="23">
                    <mxGeometry relative="1" as="geometry">
                        <Array as="points">
                            <mxPoint x="490" y="270"/>
                        </Array>
                    </mxGeometry>
                </mxCell>
                <mxCell id="2" value="Recettes" style="swimlane;fontStyle=0;childLayout=stackLayout;horizontal=1;startSize=30;horizontalStack=0;resizeParent=1;resizeParentMax=0;resizeLast=0;collapsible=1;marginBottom=0;" vertex="1" parent="1">
                    <mxGeometry x="440" y="100" width="100" height="120" as="geometry"/>
                </mxCell>
                <mxCell id="3" value="nom " style="text;strokeColor=none;fillColor=none;align=left;verticalAlign=middle;spacingLeft=4;spacingRight=4;overflow=hidden;points=[[0,0.5],[1,0.5]];portConstraint=eastwest;rotatable=0;" vertex="1" parent="2">
                    <mxGeometry y="30" width="100" height="30" as="geometry"/>
                </mxCell>
                <mxCell id="4" value="description" style="text;strokeColor=none;fillColor=none;align=left;verticalAlign=middle;spacingLeft=4;spacingRight=4;overflow=hidden;points=[[0,0.5],[1,0.5]];portConstraint=eastwest;rotatable=0;" vertex="1" parent="2">
                    <mxGeometry y="60" width="100" height="30" as="geometry"/>
                </mxCell>
                <mxCell id="5" value="photo" style="text;strokeColor=none;fillColor=none;align=left;verticalAlign=middle;spacingLeft=4;spacingRight=4;overflow=hidden;points=[[0,0.5],[1,0.5]];portConstraint=eastwest;rotatable=0;" vertex="1" parent="2">
                    <mxGeometry y="90" width="100" height="30" as="geometry"/>
                </mxCell>
                <mxCell id="28" value="0,n" style="edgeStyle=none;html=1;entryX=0;entryY=0.5;entryDx=0;entryDy=0;endArrow=baseDash;endFill=0;" edge="1" parent="1" source="6" target="27">
                    <mxGeometry relative="1" as="geometry"/>
                </mxCell>
                <mxCell id="6" value="Categories" style="swimlane;fontStyle=0;childLayout=stackLayout;horizontal=1;startSize=30;horizontalStack=0;resizeParent=1;resizeParentMax=0;resizeLast=0;collapsible=1;marginBottom=0;" vertex="1" parent="1">
                    <mxGeometry x="20" y="130" width="110" height="60" as="geometry"/>
                </mxCell>
                <mxCell id="7" value="nom " style="text;strokeColor=none;fillColor=none;align=left;verticalAlign=middle;spacingLeft=4;spacingRight=4;overflow=hidden;points=[[0,0.5],[1,0.5]];portConstraint=eastwest;rotatable=0;" vertex="1" parent="6">
                    <mxGeometry y="30" width="110" height="30" as="geometry"/>
                </mxCell>
                <mxCell id="10" value="Ingredient" style="swimlane;fontStyle=0;childLayout=stackLayout;horizontal=1;startSize=30;horizontalStack=0;resizeParent=1;resizeParentMax=0;resizeLast=0;collapsible=1;marginBottom=0;" vertex="1" parent="1">
                    <mxGeometry x="420" y="480" width="140" height="90" as="geometry"/>
                </mxCell>
                <mxCell id="11" value="nom " style="text;strokeColor=none;fillColor=none;align=left;verticalAlign=middle;spacingLeft=4;spacingRight=4;overflow=hidden;points=[[0,0.5],[1,0.5]];portConstraint=eastwest;rotatable=0;" vertex="1" parent="10">
                    <mxGeometry y="30" width="140" height="30" as="geometry"/>
                </mxCell>
                <mxCell id="12" value="quantité" style="text;strokeColor=none;fillColor=none;align=left;verticalAlign=middle;spacingLeft=4;spacingRight=4;overflow=hidden;points=[[0,0.5],[1,0.5]];portConstraint=eastwest;rotatable=0;" vertex="1" parent="10">
                    <mxGeometry y="60" width="140" height="30" as="geometry"/>
                </mxCell>
                <mxCell id="13" value="Utilisator" style="swimlane;fontStyle=0;childLayout=stackLayout;horizontal=1;startSize=30;horizontalStack=0;resizeParent=1;resizeParentMax=0;resizeLast=0;collapsible=1;marginBottom=0;" vertex="1" parent="1">
                    <mxGeometry x="5" y="460" width="140" height="180" as="geometry"/>
                </mxCell>
                <mxCell id="14" value="nom " style="text;strokeColor=none;fillColor=none;align=left;verticalAlign=middle;spacingLeft=4;spacingRight=4;overflow=hidden;points=[[0,0.5],[1,0.5]];portConstraint=eastwest;rotatable=0;" vertex="1" parent="13">
                    <mxGeometry y="30" width="140" height="30" as="geometry"/>
                </mxCell>
                <mxCell id="15" value="prenom" style="text;strokeColor=none;fillColor=none;align=left;verticalAlign=middle;spacingLeft=4;spacingRight=4;overflow=hidden;points=[[0,0.5],[1,0.5]];portConstraint=eastwest;rotatable=0;" vertex="1" parent="13">
                    <mxGeometry y="60" width="140" height="30" as="geometry"/>
                </mxCell>
                <mxCell id="17" value="email" style="text;strokeColor=none;fillColor=none;align=left;verticalAlign=middle;spacingLeft=4;spacingRight=4;overflow=hidden;points=[[0,0.5],[1,0.5]];portConstraint=eastwest;rotatable=0;" vertex="1" parent="13">
                    <mxGeometry y="90" width="140" height="30" as="geometry"/>
                </mxCell>
                <mxCell id="16" value="password hashed" style="text;strokeColor=none;fillColor=none;align=left;verticalAlign=middle;spacingLeft=4;spacingRight=4;overflow=hidden;points=[[0,0.5],[1,0.5]];portConstraint=eastwest;rotatable=0;" vertex="1" parent="13">
                    <mxGeometry y="120" width="140" height="30" as="geometry"/>
                </mxCell>
                <mxCell id="18" value="date of creation" style="text;strokeColor=none;fillColor=none;align=left;verticalAlign=middle;spacingLeft=4;spacingRight=4;overflow=hidden;points=[[0,0.5],[1,0.5]];portConstraint=eastwest;rotatable=0;" vertex="1" parent="13">
                    <mxGeometry y="150" width="140" height="30" as="geometry"/>
                </mxCell>
                <mxCell id="35" value="0, n" style="edgeStyle=none;html=1;entryX=0.5;entryY=0;entryDx=0;entryDy=0;endArrow=baseDash;endFill=0;" edge="1" parent="1" source="23" target="10">
                    <mxGeometry relative="1" as="geometry"/>
                </mxCell>
                <mxCell id="23" value="contenir" style="swimlane;fontStyle=0;childLayout=stackLayout;horizontal=1;startSize=30;horizontalStack=0;resizeParent=1;resizeParentMax=0;resizeLast=0;collapsible=1;marginBottom=0;rounded=1;" vertex="1" parent="1">
                    <mxGeometry x="420" y="310" width="140" height="60" as="geometry"/>
                </mxCell>
                <mxCell id="30" value="1,1" style="edgeStyle=none;html=1;entryX=-0.01;entryY=0.033;entryDx=0;entryDy=0;entryPerimeter=0;endArrow=baseDash;endFill=0;" edge="1" parent="1" source="27" target="4">
                    <mxGeometry relative="1" as="geometry"/>
                </mxCell>
                <mxCell id="27" value="lier" style="swimlane;fontStyle=0;childLayout=stackLayout;horizontal=1;startSize=30;horizontalStack=0;resizeParent=1;resizeParentMax=0;resizeLast=0;collapsible=1;marginBottom=0;rounded=1;" vertex="1" parent="1">
                    <mxGeometry x="240" y="130" width="70" height="60" as="geometry"/>
                </mxCell>
                <mxCell id="36" style="edgeStyle=none;html=1;endArrow=baseDash;endFill=0;exitX=1.021;exitY=0.3;exitDx=0;exitDy=0;exitPerimeter=0;" edge="1" parent="1" source="17">
                    <mxGeometry relative="1" as="geometry">
                        <mxPoint x="250" y="400" as="targetPoint"/>
                    </mxGeometry>
                </mxCell>
                <mxCell id="37" value="0, n" style="edgeLabel;html=1;align=center;verticalAlign=middle;resizable=0;points=[];" vertex="1" connectable="0" parent="36">
                    <mxGeometry x="-0.0495" y="-2" relative="1" as="geometry">
                        <mxPoint as="offset"/>
                    </mxGeometry>
                </mxCell>
                <mxCell id="39" style="edgeStyle=none;html=1;entryX=0;entryY=0.5;entryDx=0;entryDy=0;endArrow=baseDash;endFill=0;" edge="1" parent="1" source="38" target="4">
                    <mxGeometry relative="1" as="geometry"/>
                </mxCell>
                <mxCell id="40" value="1, 1" style="edgeLabel;html=1;align=center;verticalAlign=middle;resizable=0;points=[];" vertex="1" connectable="0" parent="39">
                    <mxGeometry x="-0.1559" y="-1" relative="1" as="geometry">
                        <mxPoint as="offset"/>
                    </mxGeometry>
                </mxCell>
                <mxCell id="38" value="créer" style="swimlane;fontStyle=0;childLayout=stackLayout;horizontal=1;startSize=30;horizontalStack=0;resizeParent=1;resizeParentMax=0;resizeLast=0;collapsible=1;marginBottom=0;rounded=1;" vertex="1" parent="1">
                    <mxGeometry x="250" y="340" width="70" height="60" as="geometry"/>
                </mxCell>
                <mxCell id="41" value="quantité" style="text;html=1;align=center;verticalAlign=middle;resizable=0;points=[];autosize=1;strokeColor=none;fillColor=none;" vertex="1" parent="1">
                    <mxGeometry x="450" y="340" width="60" height="20" as="geometry"/>
                </mxCell>
            </root>
        </mxGraphModel>
    </diagram>
    <diagram id="FBGWHKCYxqALxinKCLcU" name="MLD">
        <mxGraphModel dx="851" dy="773" grid="1" gridSize="10" guides="1" tooltips="1" connect="1" arrows="1" fold="1" page="1" pageScale="1" pageWidth="827" pageHeight="1169" math="0" shadow="0">
            <root>
                <mxCell id="AR7ylbPh5ICH9uu6NcT8-0"/>
                <mxCell id="AR7ylbPh5ICH9uu6NcT8-1" parent="AR7ylbPh5ICH9uu6NcT8-0"/>
                <mxCell id="9-WGWb4sY0l8Tg_l6j6D-0" value="utilisateurs" style="swimlane;fontStyle=0;childLayout=stackLayout;horizontal=1;startSize=30;horizontalStack=0;resizeParent=1;resizeParentMax=0;resizeLast=0;collapsible=1;marginBottom=0;" vertex="1" parent="AR7ylbPh5ICH9uu6NcT8-1">
                    <mxGeometry x="50" y="120" width="170" height="210" as="geometry"/>
                </mxCell>
                <mxCell id="9-WGWb4sY0l8Tg_l6j6D-6" value="id INT (pk)" style="text;strokeColor=#3A5431;fillColor=#6d8764;align=left;verticalAlign=middle;spacingLeft=4;spacingRight=4;overflow=hidden;points=[[0,0.5],[1,0.5]];portConstraint=eastwest;rotatable=0;fontColor=#ffffff;" vertex="1" parent="9-WGWb4sY0l8Tg_l6j6D-0">
                    <mxGeometry y="30" width="170" height="30" as="geometry"/>
                </mxCell>
                <mxCell id="9-WGWb4sY0l8Tg_l6j6D-1" value="nom  VARCHAR(30)" style="text;strokeColor=none;fillColor=none;align=left;verticalAlign=middle;spacingLeft=4;spacingRight=4;overflow=hidden;points=[[0,0.5],[1,0.5]];portConstraint=eastwest;rotatable=0;" vertex="1" parent="9-WGWb4sY0l8Tg_l6j6D-0">
                    <mxGeometry y="60" width="170" height="30" as="geometry"/>
                </mxCell>
                <mxCell id="9-WGWb4sY0l8Tg_l6j6D-2" value="prenom VARCHAR(30)" style="text;strokeColor=none;fillColor=none;align=left;verticalAlign=middle;spacingLeft=4;spacingRight=4;overflow=hidden;points=[[0,0.5],[1,0.5]];portConstraint=eastwest;rotatable=0;" vertex="1" parent="9-WGWb4sY0l8Tg_l6j6D-0">
                    <mxGeometry y="90" width="170" height="30" as="geometry"/>
                </mxCell>
                <mxCell id="9-WGWb4sY0l8Tg_l6j6D-3" value="email VARCHAR(120)" style="text;strokeColor=none;fillColor=none;align=left;verticalAlign=middle;spacingLeft=4;spacingRight=4;overflow=hidden;points=[[0,0.5],[1,0.5]];portConstraint=eastwest;rotatable=0;" vertex="1" parent="9-WGWb4sY0l8Tg_l6j6D-0">
                    <mxGeometry y="120" width="170" height="30" as="geometry"/>
                </mxCell>
                <mxCell id="9-WGWb4sY0l8Tg_l6j6D-4" value="password _h VARCHAR(64)" style="text;strokeColor=none;fillColor=none;align=left;verticalAlign=middle;spacingLeft=4;spacingRight=4;overflow=hidden;points=[[0,0.5],[1,0.5]];portConstraint=eastwest;rotatable=0;" vertex="1" parent="9-WGWb4sY0l8Tg_l6j6D-0">
                    <mxGeometry y="150" width="170" height="30" as="geometry"/>
                </mxCell>
                <mxCell id="9-WGWb4sY0l8Tg_l6j6D-5" value="date_de_creation DATE" style="text;strokeColor=none;fillColor=none;align=left;verticalAlign=middle;spacingLeft=4;spacingRight=4;overflow=hidden;points=[[0,0.5],[1,0.5]];portConstraint=eastwest;rotatable=0;" vertex="1" parent="9-WGWb4sY0l8Tg_l6j6D-0">
                    <mxGeometry y="180" width="170" height="30" as="geometry"/>
                </mxCell>
                <mxCell id="N9UfnR0s5BtS3xq9aLGj-0" value="recettes" style="swimlane;fontStyle=0;childLayout=stackLayout;horizontal=1;startSize=30;horizontalStack=0;resizeParent=1;resizeParentMax=0;resizeLast=0;collapsible=1;marginBottom=0;" vertex="1" parent="AR7ylbPh5ICH9uu6NcT8-1">
                    <mxGeometry x="344" y="120" width="140" height="210" as="geometry"/>
                </mxCell>
                <mxCell id="N9UfnR0s5BtS3xq9aLGj-5" value="id INT (pk)" style="text;strokeColor=#3A5431;fillColor=#6d8764;align=left;verticalAlign=middle;spacingLeft=4;spacingRight=4;overflow=hidden;points=[[0,0.5],[1,0.5]];portConstraint=eastwest;rotatable=0;fontColor=#ffffff;" vertex="1" parent="N9UfnR0s5BtS3xq9aLGj-0">
                    <mxGeometry y="30" width="140" height="30" as="geometry"/>
                </mxCell>
                <mxCell id="N9UfnR0s5BtS3xq9aLGj-4" value="utilisateur_id INT (fk)" style="text;strokeColor=#314354;fillColor=#647687;align=left;verticalAlign=middle;spacingLeft=4;spacingRight=4;overflow=hidden;points=[[0,0.5],[1,0.5]];portConstraint=eastwest;rotatable=0;fontColor=#ffffff;" vertex="1" parent="N9UfnR0s5BtS3xq9aLGj-0">
                    <mxGeometry y="60" width="140" height="30" as="geometry"/>
                </mxCell>
                <mxCell id="9WUCxd6WN-VnPiLpAqhP-3" value="category_id INT (fk)" style="text;strokeColor=#314354;fillColor=#647687;align=left;verticalAlign=middle;spacingLeft=4;spacingRight=4;overflow=hidden;points=[[0,0.5],[1,0.5]];portConstraint=eastwest;rotatable=0;fontColor=#ffffff;" vertex="1" parent="N9UfnR0s5BtS3xq9aLGj-0">
                    <mxGeometry y="90" width="140" height="30" as="geometry"/>
                </mxCell>
                <mxCell id="N9UfnR0s5BtS3xq9aLGj-1" value="titre VARCHAR(120)" style="text;strokeColor=none;fillColor=none;align=left;verticalAlign=middle;spacingLeft=4;spacingRight=4;overflow=hidden;points=[[0,0.5],[1,0.5]];portConstraint=eastwest;rotatable=0;" vertex="1" parent="N9UfnR0s5BtS3xq9aLGj-0">
                    <mxGeometry y="120" width="140" height="30" as="geometry"/>
                </mxCell>
                <mxCell id="N9UfnR0s5BtS3xq9aLGj-2" value="description TEXT" style="text;strokeColor=none;fillColor=none;align=left;verticalAlign=middle;spacingLeft=4;spacingRight=4;overflow=hidden;points=[[0,0.5],[1,0.5]];portConstraint=eastwest;rotatable=0;" vertex="1" parent="N9UfnR0s5BtS3xq9aLGj-0">
                    <mxGeometry y="150" width="140" height="30" as="geometry"/>
                </mxCell>
                <mxCell id="N9UfnR0s5BtS3xq9aLGj-3" value="image VARCHAR(255)" style="text;strokeColor=none;fillColor=none;align=left;verticalAlign=middle;spacingLeft=4;spacingRight=4;overflow=hidden;points=[[0,0.5],[1,0.5]];portConstraint=eastwest;rotatable=0;" vertex="1" parent="N9UfnR0s5BtS3xq9aLGj-0">
                    <mxGeometry y="180" width="140" height="30" as="geometry"/>
                </mxCell>
                <mxCell id="WlJZgZJUy3UJLdv-_LPF-0" value="ingredients" style="swimlane;fontStyle=0;childLayout=stackLayout;horizontal=1;startSize=30;horizontalStack=0;resizeParent=1;resizeParentMax=0;resizeLast=0;collapsible=1;marginBottom=0;" vertex="1" parent="AR7ylbPh5ICH9uu6NcT8-1">
                    <mxGeometry x="360" y="610" width="140" height="90" as="geometry"/>
                </mxCell>
                <mxCell id="WlJZgZJUy3UJLdv-_LPF-4" value="id INT (pk)" style="text;strokeColor=#3A5431;fillColor=#6d8764;align=left;verticalAlign=middle;spacingLeft=4;spacingRight=4;overflow=hidden;points=[[0,0.5],[1,0.5]];portConstraint=eastwest;rotatable=0;fontColor=#ffffff;" vertex="1" parent="WlJZgZJUy3UJLdv-_LPF-0">
                    <mxGeometry y="30" width="140" height="30" as="geometry"/>
                </mxCell>
                <mxCell id="WlJZgZJUy3UJLdv-_LPF-1" value="item VARCHAR(255)" style="text;strokeColor=none;fillColor=none;align=left;verticalAlign=middle;spacingLeft=4;spacingRight=4;overflow=hidden;points=[[0,0.5],[1,0.5]];portConstraint=eastwest;rotatable=0;" vertex="1" parent="WlJZgZJUy3UJLdv-_LPF-0">
                    <mxGeometry y="60" width="140" height="30" as="geometry"/>
                </mxCell>
                <mxCell id="9WUCxd6WN-VnPiLpAqhP-0" value="categories" style="swimlane;fontStyle=0;childLayout=stackLayout;horizontal=1;startSize=30;horizontalStack=0;resizeParent=1;resizeParentMax=0;resizeLast=0;collapsible=1;marginBottom=0;" vertex="1" parent="AR7ylbPh5ICH9uu6NcT8-1">
                    <mxGeometry x="640" y="170" width="140" height="90" as="geometry"/>
                </mxCell>
                <mxCell id="9WUCxd6WN-VnPiLpAqhP-2" value="id INT (pk)" style="text;strokeColor=#3A5431;fillColor=#6d8764;align=left;verticalAlign=middle;spacingLeft=4;spacingRight=4;overflow=hidden;points=[[0,0.5],[1,0.5]];portConstraint=eastwest;rotatable=0;fontColor=#ffffff;" vertex="1" parent="9WUCxd6WN-VnPiLpAqhP-0">
                    <mxGeometry y="30" width="140" height="30" as="geometry"/>
                </mxCell>
                <mxCell id="9WUCxd6WN-VnPiLpAqhP-1" value="nom VARCHAR(120)" style="text;strokeColor=none;fillColor=none;align=left;verticalAlign=middle;spacingLeft=4;spacingRight=4;overflow=hidden;points=[[0,0.5],[1,0.5]];portConstraint=eastwest;rotatable=0;" vertex="1" parent="9WUCxd6WN-VnPiLpAqhP-0">
                    <mxGeometry y="60" width="140" height="30" as="geometry"/>
                </mxCell>
                <mxCell id="TtIthqVKKRlExos4xH4v-0" style="edgeStyle=orthogonalEdgeStyle;rounded=0;orthogonalLoop=1;jettySize=auto;html=1;endArrow=ERmandOne;endFill=0;startArrow=ERoneToMany;startFill=0;exitX=0;exitY=0.5;exitDx=0;exitDy=0;" edge="1" parent="AR7ylbPh5ICH9uu6NcT8-1" source="N9UfnR0s5BtS3xq9aLGj-4">
                    <mxGeometry relative="1" as="geometry">
                        <mxPoint x="510" y="235" as="sourcePoint"/>
                        <mxPoint x="220" y="160" as="targetPoint"/>
                        <Array as="points">
                            <mxPoint x="300" y="195"/>
                            <mxPoint x="300" y="160"/>
                        </Array>
                    </mxGeometry>
                </mxCell>
                <mxCell id="HYd3xe4Ap3fTtPTEGEBD-0" style="edgeStyle=orthogonalEdgeStyle;rounded=0;orthogonalLoop=1;jettySize=auto;html=1;endArrow=ERmandOne;endFill=0;startArrow=ERoneToMany;startFill=0;exitX=1;exitY=0.5;exitDx=0;exitDy=0;entryX=0;entryY=0.5;entryDx=0;entryDy=0;" edge="1" parent="AR7ylbPh5ICH9uu6NcT8-1" source="N9UfnR0s5BtS3xq9aLGj-0" target="9WUCxd6WN-VnPiLpAqhP-2">
                    <mxGeometry relative="1" as="geometry">
                        <mxPoint x="714" y="355" as="sourcePoint"/>
                        <mxPoint x="620" y="320" as="targetPoint"/>
                        <Array as="points">
                            <mxPoint x="510" y="225"/>
                            <mxPoint x="510" y="215"/>
                        </Array>
                    </mxGeometry>
                </mxCell>
                <mxCell id="CHEFByYDy9g8TbVSGLjb-0" value="recettes_ingredients" style="swimlane;fontStyle=0;childLayout=stackLayout;horizontal=1;startSize=30;horizontalStack=0;resizeParent=1;resizeParentMax=0;resizeLast=0;collapsible=1;marginBottom=0;" vertex="1" parent="AR7ylbPh5ICH9uu6NcT8-1">
                    <mxGeometry x="460" y="400" width="140" height="180" as="geometry"/>
                </mxCell>
                <mxCell id="7Mc9kk5K-LuQwRvHT9kx-3" value="id INT (pk)" style="text;strokeColor=#3A5431;fillColor=#6d8764;align=left;verticalAlign=middle;spacingLeft=4;spacingRight=4;overflow=hidden;points=[[0,0.5],[1,0.5]];portConstraint=eastwest;rotatable=0;fontColor=#ffffff;" vertex="1" parent="CHEFByYDy9g8TbVSGLjb-0">
                    <mxGeometry y="30" width="140" height="30" as="geometry"/>
                </mxCell>
                <mxCell id="CHEFByYDy9g8TbVSGLjb-1" value="recette_id INT (fk)" style="text;strokeColor=#314354;fillColor=#647687;align=left;verticalAlign=middle;spacingLeft=4;spacingRight=4;overflow=hidden;points=[[0,0.5],[1,0.5]];portConstraint=eastwest;rotatable=0;fontColor=#ffffff;" vertex="1" parent="CHEFByYDy9g8TbVSGLjb-0">
                    <mxGeometry y="60" width="140" height="30" as="geometry"/>
                </mxCell>
                <mxCell id="CHEFByYDy9g8TbVSGLjb-2" value="ingredient_id INT (fk)" style="text;strokeColor=#314354;fillColor=#647687;align=left;verticalAlign=middle;spacingLeft=4;spacingRight=4;overflow=hidden;points=[[0,0.5],[1,0.5]];portConstraint=eastwest;rotatable=0;fontColor=#ffffff;" vertex="1" parent="CHEFByYDy9g8TbVSGLjb-0">
                    <mxGeometry y="90" width="140" height="30" as="geometry"/>
                </mxCell>
                <mxCell id="7Mc9kk5K-LuQwRvHT9kx-2" value="quantite INT" style="text;align=left;verticalAlign=middle;spacingLeft=4;spacingRight=4;overflow=hidden;points=[[0,0.5],[1,0.5]];portConstraint=eastwest;rotatable=0;" vertex="1" parent="CHEFByYDy9g8TbVSGLjb-0">
                    <mxGeometry y="120" width="140" height="30" as="geometry"/>
                </mxCell>
                <mxCell id="7Mc9kk5K-LuQwRvHT9kx-1" value="unite VARCHAR(20)" style="text;align=left;verticalAlign=middle;spacingLeft=4;spacingRight=4;overflow=hidden;points=[[0,0.5],[1,0.5]];portConstraint=eastwest;rotatable=0;" vertex="1" parent="CHEFByYDy9g8TbVSGLjb-0">
                    <mxGeometry y="150" width="140" height="30" as="geometry"/>
                </mxCell>
                <mxCell id="zM_NAOFac438ZuPghDPQ-0" style="edgeStyle=orthogonalEdgeStyle;rounded=0;orthogonalLoop=1;jettySize=auto;html=1;endArrow=ERmandOne;endFill=0;startArrow=ERoneToMany;startFill=0;entryX=0;entryY=0.5;entryDx=0;entryDy=0;exitX=0;exitY=0.5;exitDx=0;exitDy=0;" edge="1" parent="AR7ylbPh5ICH9uu6NcT8-1" source="WlJZgZJUy3UJLdv-_LPF-4" target="CHEFByYDy9g8TbVSGLjb-2">
                    <mxGeometry relative="1" as="geometry">
                        <mxPoint x="340" y="600" as="sourcePoint"/>
                        <mxPoint x="536" y="550" as="targetPoint"/>
                        <Array as="points">
                            <mxPoint x="300" y="655"/>
                            <mxPoint x="300" y="500"/>
                            <mxPoint x="460" y="500"/>
                        </Array>
                    </mxGeometry>
                </mxCell>
                <mxCell id="7Mc9kk5K-LuQwRvHT9kx-0" style="edgeStyle=orthogonalEdgeStyle;rounded=0;orthogonalLoop=1;jettySize=auto;html=1;endArrow=ERmandOne;endFill=0;startArrow=ERoneToMany;startFill=0;exitX=1;exitY=0.5;exitDx=0;exitDy=0;" edge="1" parent="AR7ylbPh5ICH9uu6NcT8-1" source="N9UfnR0s5BtS3xq9aLGj-5">
                    <mxGeometry relative="1" as="geometry">
                        <mxPoint x="530" y="300" as="sourcePoint"/>
                        <mxPoint x="600" y="480" as="targetPoint"/>
                        <Array as="points">
                            <mxPoint x="570" y="165"/>
                            <mxPoint x="570" y="370"/>
                            <mxPoint x="640" y="370"/>
                            <mxPoint x="640" y="480"/>
                        </Array>
                    </mxGeometry>
                </mxCell>
            </root>
        </mxGraphModel>
    </diagram>
</mxfile>